<?xml version="1.0" encoding="UTF-8"?>
<svg version="1.1" xmlns="http://www.w3.org/2000/svg" width="1600" height="1606">
<path d="M0 0 C2.43944937 0.0100703 4.87890285 0.01918885 7.31835938 0.02734375 C13.19150221 0.04898946 19.06447153 0.08300998 24.9375 0.125 C24.3089156 7.72919396 23.15520312 15.17794308 21.8203125 22.68725586 C21.60719421 23.90309357 21.39407593 25.11893127 21.17449951 26.37161255 C20.59459066 29.67532819 20.0114237 32.97843476 19.4265976 36.28128123 C18.813422 39.74809981 18.20410276 43.21559638 17.59423828 46.68299866 C16.57123173 52.49590425 15.54532555 58.30829218 14.51757812 64.12036133 C13.32961732 70.83862335 12.14589895 77.55762216 10.96450233 84.27704138 C9.82565437 90.75407872 8.68420946 97.23065559 7.54144287 103.70700264 C7.05583697 106.45918847 6.57107401 109.2115208 6.0869751 111.96397209 C5.41224491 115.79929542 4.73368099 119.63393488 4.0546875 123.46850586 C3.85413757 124.6108519 3.65358765 125.75319794 3.44696045 126.93016052 C3.26191956 127.97160217 3.07687866 129.01304382 2.88623047 130.08604431 C2.72621552 130.99208373 2.56620056 131.89812315 2.40133667 132.83161831 C1.9375 135.125 1.9375 135.125 0.9375 138.125 C-0.71958984 138.22204224 -0.71958984 138.22204224 -2.41015625 138.32104492 C-65.48129863 142.08932214 -123.36551679 155.38927514 -180.0625 184.125 C-180.85350098 184.52477051 -181.64450195 184.92454102 -182.45947266 185.33642578 C-202.04059628 195.37504105 -221.0382013 208.20750952 -238.0625 222.125 C-238.99320313 222.86621094 -239.92390625 223.60742188 -240.8828125 224.37109375 C-246.61975681 228.98142365 -252.10655929 233.81535009 -257.51953125 238.80078125 C-259.62601167 240.72605906 -261.7626648 242.59094181 -263.9375 244.4375 C-272.61055616 251.98395299 -280.64346767 260.35419483 -288.0625 269.125 C-288.9184375 270.09179688 -289.774375 271.05859375 -290.65625 272.0546875 C-356.93487652 347.24107223 -390.44719351 449.66661122 -384.18249512 549.31796265 C-381.80518943 586.11680645 -374.01581851 621.69327411 -361.91015625 656.4921875 C-361.0625 659.125 -361.0625 659.125 -361.0625 661.125 C-350.61840122 655.43264182 -340.42651134 649.3558973 -330.27526855 643.15896606 C-320.579954 637.2416035 -310.83828761 631.40837905 -301.0625 625.625 C-289.88403097 619.00964313 -278.75693195 612.31701017 -267.66699219 605.55444336 C-259.28495058 600.44912816 -250.85580856 595.42661499 -242.40917969 590.4289856 C-238.38842184 588.04821519 -234.37228174 585.65966631 -230.35656738 583.270401 C-227.60764869 581.63527225 -224.85677164 580.00403118 -222.09960938 578.3828125 C-219.74568901 576.997533 -217.40243516 575.59621973 -215.0625 574.1875 C-214.4221582 573.8169751 -213.78181641 573.4464502 -213.12207031 573.06469727 C-211.26046997 571.9764788 -211.26046997 571.9764788 -209.0625 570.125 C-209.0625 565.85795052 -209.89088808 563.50441641 -211.43164062 559.5559082 C-211.68329987 558.90478498 -211.93495911 558.25366177 -212.19424438 557.58280754 C-212.74178251 556.1682678 -213.29235608 554.75490014 -213.84559631 553.3425808 C-215.03952739 550.29428582 -216.21867061 547.24033686 -217.39885712 544.18669987 C-218.01824374 542.58456706 -218.6383988 540.98273113 -219.25928497 539.38117886 C-222.5079405 530.99697328 -225.67986628 522.58444888 -228.84375 514.16796875 C-229.40340127 512.68113172 -229.96313443 511.19432552 -230.52294922 509.70755005 C-231.92146589 505.99276712 -233.31904888 502.2776338 -234.71630859 498.56237793 C-236.98904815 492.51955294 -239.26301788 486.47719113 -241.5375824 480.43505287 C-242.31394481 478.37216471 -243.08969088 476.30904565 -243.86535645 474.24589539 C-244.10735527 473.60302739 -244.3493541 472.9601594 -244.59868622 472.29781055 C-245.29893098 470.43652237 -245.99726559 468.57451592 -246.69555664 466.7124939 C-247.61865231 464.28986238 -248.56376405 461.87552196 -249.52905273 459.46939087 C-249.98803955 458.32102753 -250.44702637 457.17266418 -250.91992188 455.98950195 C-251.33238159 454.97781448 -251.74484131 453.96612701 -252.1697998 452.92378235 C-253.0774738 450.07805434 -253.42265505 448.08406959 -253.0625 445.125 C-251.23833521 442.87569213 -249.48687964 440.99015147 -247.40234375 439.01171875 C-246.81965225 438.43847366 -246.23696075 437.86522858 -245.63661194 437.27461243 C-243.76918259 435.44175098 -241.88551861 433.62673064 -240 431.8125 C-237.54622323 429.42522298 -235.09892541 427.03136639 -232.65234375 424.63671875 C-232.05650482 424.05574432 -231.46066589 423.4747699 -230.84677124 422.87619019 C-227.98770561 420.07489057 -225.21543408 417.26639191 -222.62890625 414.20703125 C-216.28851197 406.71185385 -208.99417597 400.00707578 -202.0234375 393.10644531 C-193.54229281 384.85206023 -193.54229281 384.85206023 -185.5625 376.125 C-179.2424958 368.66030116 -171.96832678 361.98148657 -165.0234375 355.10644531 C-155.73396875 345.95630715 -155.73396875 345.95630715 -147 336.28515625 C-141.1816653 329.79818228 -134.78805704 323.80648617 -128.59619141 317.67919922 C-127.30559718 316.40087484 -126.01618817 315.12135264 -124.72802734 313.84057617 C-123.47933701 312.6001371 -122.22709097 311.36326641 -120.97119141 310.13012695 C-117.87538601 307.06349536 -115.19194398 304.02530779 -112.65625 300.46875 C-109.6257934 296.93389172 -106.23351471 296.11237938 -101.8460083 295.13748169 C-101.13809119 294.97076655 -100.43017409 294.8040514 -99.70080495 294.63228428 C-97.49088032 294.11634608 -95.27753172 293.61850707 -93.0625 293.125 C-92.39930221 292.97497449 -91.73610441 292.82494899 -91.05280972 292.67037725 C-86.35283891 291.60855886 -81.64389761 290.59152229 -76.93261719 289.58154297 C-75.39304992 289.24944472 -73.85353113 288.91712165 -72.3140564 288.58459473 C-68.18675951 287.69382706 -64.05876 286.80635923 -59.93057919 285.91969824 C-56.46611156 285.17523945 -53.00201669 284.42905434 -49.53792119 283.68286622 C-41.36237436 281.92180402 -33.18626577 280.16336862 -25.00976562 278.40673828 C-16.60655108 276.60136387 -8.20419233 274.79204787 0.19773984 272.98071563 C7.44870426 271.4176295 14.700137 269.85673031 21.95195651 268.29761612 C26.26716455 267.36985759 30.58221009 266.44136137 34.8968277 265.51086044 C38.95117028 264.63661345 43.0060979 263.76513142 47.06147385 262.89569092 C48.54020702 262.57820563 50.0187422 262.25979633 51.49705124 261.94034195 C58.22684085 260.48661832 64.96368836 259.06783511 71.73455811 257.81716919 C72.67425823 257.64214937 73.61395836 257.46712955 74.58213425 257.28680611 C76.9375 257.125 76.9375 257.125 79.796875 258.765625 C80.73273438 260.05726563 80.73273438 260.05726563 81.6875 261.375 C82.409375 262.31601562 83.13125 263.25703125 83.875 264.2265625 C84.555625 265.18304687 85.23625 266.13953125 85.9375 267.125 C87.17988759 268.67280787 88.42982483 270.21458823 89.6875 271.75 C90.66396484 272.9875 90.66396484 272.9875 91.66015625 274.25 C94.45200684 277.77453179 97.2868488 281.2627217 100.125 284.75 C100.67808838 285.43054443 101.23117676 286.11108887 101.80102539 286.81225586 C104.63343731 290.29670454 107.47002651 293.77766033 110.3125 297.25390625 C113.01855665 300.56434726 115.70662156 303.88884523 118.38867188 307.21875 C119.92422849 309.10866583 121.48368805 310.97666521 123.046875 312.84375 C123.99034156 313.9993814 124.93308905 315.15560034 125.875 316.3125 C126.70902344 317.31667969 127.54304687 318.32085938 128.40234375 319.35546875 C129.9375 322.125 129.9375 322.125 129.48445129 324.32679749 C127.21344205 328.43471207 124.05335468 331.39225572 120.72143555 334.66577148 C119.97815002 335.40788879 119.2348645 336.1500061 118.46905518 336.91461182 C116.01100498 339.36547644 113.54261209 341.80565036 111.07421875 344.24609375 C109.36197039 345.95020372 107.65045809 347.65505356 105.93965149 349.36061096 C101.43195797 353.85118015 96.91577809 358.3331126 92.39733887 362.81286621 C85.17364032 369.97740365 77.96249656 377.1545712 70.7520237 384.33241463 C68.23493088 386.83557923 65.71403966 389.33486765 63.19255066 391.83360291 C61.64219768 393.37392728 60.09192585 394.91433332 58.54174805 396.45483398 C57.84285965 397.14541397 57.14397125 397.83599396 56.42390442 398.54750061 C53.53570495 401.42258184 50.77637708 404.26267055 48.26750183 407.47695923 C45.83957822 410.23628784 44.51125339 411.11744061 41.05322266 412.16381836 C40.10677887 412.46110336 39.16033508 412.75838837 38.18521118 413.06468201 C37.16760712 413.36173538 36.15000305 413.65878876 35.1015625 413.96484375 C34.03118744 414.29488907 32.96081238 414.62493439 31.85800171 414.96498108 C28.43166543 416.01662285 24.99761332 417.03993779 21.5625 418.0625 C19.32234899 418.74488396 17.08275907 419.4291128 14.84375 420.11523438 C12.61721298 420.79435439 10.39065052 421.47339098 8.1640625 422.15234375 C6.50700287 422.6600103 6.50700287 422.6600103 4.81646729 423.17793274 C-0.56636357 424.81444568 -5.94834385 426.37444921 -11.39941406 427.76831055 C-24.23031598 431.14299242 -32.32164456 435.07229556 -41.0625 445.0625 C-42.05071313 446.12285855 -43.04291933 447.17950961 -44.0390625 448.23242188 C-47.99756747 452.45172296 -51.79275526 456.80640035 -55.56640625 461.19140625 C-60.11158832 466.42453341 -65.07945666 471.24875575 -70 476.125 C-70.9800531 477.10002386 -71.9598724 478.0752828 -72.93945312 479.05078125 C-75.31152313 481.41116618 -77.6859086 483.76916905 -80.0625 486.125 C-78.08768244 493.80893265 -75.71295801 501.2590311 -73.0078125 508.71484375 C-72.6243869 509.78062149 -72.2409613 510.84639923 -71.84591675 511.94447327 C-71.03946256 514.1830407 -70.2309318 516.42086105 -69.42041016 518.65795898 C-68.1927464 522.04801268 -66.97283564 525.44078171 -65.75390625 528.83398438 C-64.96400194 531.0236036 -64.17365196 533.21306211 -63.3828125 535.40234375 C-63.02430206 536.39958969 -62.66579163 537.39683563 -62.29641724 538.42430115 C-60.44762811 543.51515475 -58.52469586 548.57144847 -56.49902344 553.59472656 C-56.11228455 554.55388977 -55.72554565 555.51305298 -55.3270874 556.50128174 C-53.31639795 560.6729844 -50.46500621 563.72042504 -47.1875 566.9375 C-46.30771484 567.84145508 -46.30771484 567.84145508 -45.41015625 568.76367188 C-43.64518872 570.56936943 -41.85839415 572.35009619 -40.0625 574.125 C-32.66440276 581.45606814 -32.66440276 581.45606814 -29.6875 585 C-27.09615795 588.0096753 -24.38995217 590.83588616 -21.5625 593.625 C-18.18566038 596.95605197 -15.01129635 600.37643292 -11.9609375 604.0078125 C-11.33445312 604.70648437 -10.70796875 605.40515625 -10.0625 606.125 C-9.60082932 606.71526474 -9.13915863 607.30552948 -8.66349792 607.91368103 C-5.48873448 611.75744226 -5.48873448 611.75744226 -0.98101807 613.37036133 C1.42864833 613.00247127 3.64454014 612.40652165 5.97265625 611.68359375 C6.83637848 611.45167831 7.70010071 611.21976288 8.58999634 610.9808197 C11.40619965 610.21462522 14.20157102 609.39106666 17 608.5625 C18.94090263 608.01385846 20.88272709 607.46846803 22.82543945 606.92626953 C25.75430144 606.10738391 28.68155323 605.28461987 31.60435486 604.44433594 C37.33103743 602.80557927 43.04778218 601.37624614 48.8828125 600.18359375 C64.8084358 596.83751034 74.58728203 592.52628026 84.36621094 579.22509766 C88.73741364 573.38279099 93.84483649 568.08557665 98.8125 562.75 C102.44187517 558.8346775 106.05519421 554.90742413 109.625 550.9375 C110.30377197 550.19445114 110.98254395 549.45140228 111.68188477 548.68583679 C113.93483357 546.1935515 113.93483357 546.1935515 115.79345703 543.66267395 C121.9661763 535.83337627 128.88880803 533.27974718 138.125 530.57421875 C139.61717271 530.11053955 141.10842812 529.64389948 142.59881592 529.17451477 C146.55391308 527.93741841 150.5199322 526.73990285 154.48954773 525.550354 C158.58378469 524.3162821 162.66689875 523.04650339 166.75097656 521.77929688 C172.41162196 520.02602329 178.07538588 518.28368261 183.74411392 516.55671883 C192.07939036 514.01670717 200.38639407 511.40587105 208.671875 508.70703125 C209.64918579 508.38981613 210.62649658 508.07260101 211.63342285 507.74577332 C215.16492354 506.59886232 218.69611767 505.45122502 222.22314453 504.2906189 C224.51560912 503.53839678 226.811772 502.7988472 229.109375 502.0625 C230.3478418 501.65902344 231.58630859 501.25554687 232.86230469 500.83984375 C237.51853249 499.75748149 237.51853249 499.75748149 239.9375 501.125 C241.51464844 503.6965332 241.51464844 503.6965332 243.046875 507.17578125 C243.33095215 507.80953674 243.6150293 508.44329224 243.90771484 509.09625244 C244.84843423 511.20404071 245.76787142 513.32043469 246.6875 515.4375 C247.34014041 516.911316 247.99413423 518.38453336 248.64941406 519.85717773 C250.0357803 522.97888815 251.41347288 526.10423297 252.78515625 529.23242188 C254.95769675 534.18142744 257.16375615 539.11506645 259.375 544.046875 C260.81335626 547.26003403 262.25073508 550.4736291 263.6875 553.6875 C264.03115601 554.45599274 264.37481201 555.22448547 264.72888184 556.01626587 C265.71255133 558.21930152 266.6927521 560.42384676 267.671875 562.62890625 C268.10222046 563.59114105 268.10222046 563.59114105 268.54125977 564.57281494 C270.51573166 569.03173811 272.25750034 573.54677937 273.9375 578.125 C273.56052979 578.58237549 273.18355957 579.03975098 272.79516602 579.51098633 C262.73901011 591.71339441 252.71030412 603.93685281 242.74291992 616.21191406 C237.46079159 622.71561687 232.15471307 629.19951987 226.84375 635.6796875 C222.36249692 641.15136245 217.89569126 646.63453435 213.4375 652.125 C207.59122231 659.32495732 201.72275333 666.50642597 195.84375 673.6796875 C191.36249692 679.15136245 186.89569126 684.63453435 182.4375 690.125 C176.47584355 697.46705152 170.49574786 704.79371427 164.4921875 712.1015625 C163.28949219 713.56722656 163.28949219 713.56722656 162.0625 715.0625 C161.34320312 715.93777344 160.62390625 716.81304688 159.8828125 717.71484375 C157.96559494 720.00919667 157.96559494 720.00919667 156.60195923 722.16183472 C154.61944373 724.50013507 153.26505867 725.03283744 150.36083984 725.94580078 C149.4214859 726.24852905 148.48213196 726.55125732 147.51431274 726.86315918 C146.48607391 727.17901978 145.45783508 727.49488037 144.3984375 727.8203125 C142.77547256 728.33688416 142.77547256 728.33688416 141.11972046 728.8638916 C137.52131196 730.00569827 133.91705188 731.12775261 130.3125 732.25 C127.76164103 733.05523415 125.21115642 733.86156677 122.66113281 734.66943359 C117.36036517 736.34662223 112.05679547 738.01464446 106.75097656 739.67578125 C99.56627365 741.92535123 92.38761264 744.19369035 85.2109375 746.46875 C76.03019068 749.37757766 66.84631563 752.27628182 57.66015625 755.16796875 C46.59710022 758.65091287 35.53976086 762.15159644 24.4845314 765.65929413 C19.27557955 767.31158302 14.06598141 768.9618332 8.85637856 770.61206818 C4.59119846 771.96333018 0.32643815 773.31588727 -3.93737793 774.67144775 C-7.95895596 775.94996087 -11.98162156 777.22499463 -16.00507927 778.49757957 C-17.48832487 778.96739697 -18.97117606 779.43846177 -20.45358467 779.91091347 C-28.92462967 782.60988138 -37.40127794 785.10120677 -46.0625 787.125 C-59.5625 772.125 -59.5625 772.125 -61.8046875 769.6328125 C-63.32958244 767.93907106 -64.85565402 766.24638831 -66.3828125 764.5546875 C-69.76162708 760.80935744 -73.13145965 757.05981793 -76.4375 753.25 C-79.89101561 749.28247276 -83.4525394 745.4165236 -87.01513672 741.54736328 C-90.12835044 738.1605544 -93.17494538 734.72602456 -96.1875 731.25 C-98.60800108 728.50676544 -101.0845241 725.81617094 -103.5625 723.125 C-107.18340134 719.19215159 -110.75208925 715.22285988 -114.25390625 711.18359375 C-117.32869095 707.68378482 -120.48300131 704.25645982 -123.6328125 700.82421875 C-126.35894517 697.79566944 -128.95159429 694.67359786 -131.4921875 691.48828125 C-133.21933345 689.68795072 -133.21933345 689.68795072 -137.0625 690.125 C-139.84673044 691.42264197 -139.84673044 691.42264197 -142.8125 693.24609375 C-143.37383133 693.5768541 -143.93516266 693.90761444 -144.51350403 694.24839783 C-146.36837312 695.3445771 -148.21537851 696.45332332 -150.0625 697.5625 C-151.37032103 698.33932063 -152.67851403 699.11551535 -153.98706055 699.89111328 C-163.8089489 705.72546271 -173.57408024 711.65513644 -183.32617188 717.60522461 C-192.19748593 723.01478365 -201.12037468 728.33345138 -210.0625 733.625 C-221.23059145 740.23467655 -232.3491091 746.9187234 -243.42724609 753.67797852 C-249.87806018 757.6065899 -256.35070729 761.49453104 -262.8515625 765.33984375 C-263.58936951 765.77644318 -264.32717651 766.2130426 -265.08734131 766.66287231 C-268.70001539 768.79947525 -272.31516847 770.93174597 -275.93359375 773.05859375 C-277.2396232 773.82935953 -278.54561476 774.60018953 -279.8515625 775.37109375 C-280.45223541 775.72235825 -281.05290833 776.07362274 -281.67178345 776.43553162 C-284.06820662 777.85294507 -286.08410908 779.14660908 -288.0625 781.125 C-273.29482511 797.24904331 -273.29482511 797.24904331 -257.34765625 812.17578125 C-255.58949229 813.67548008 -253.8509375 815.19819016 -252.12109375 816.73046875 C-231.68331644 834.74126001 -208.87560024 849.96476693 -185.0625 863.125 C-184.20092285 863.60437012 -183.3393457 864.08374023 -182.45166016 864.57763672 C-136.20770678 890.11157274 -83.73895761 905.89231419 -31.0625 910.125 C-30.10174561 910.21257568 -29.14099121 910.30015137 -28.15112305 910.39038086 C-15.32291787 911.42431219 -2.48515216 911.23482265 10.375 911.1875 C12.76367093 911.18247395 15.1523429 911.177913 17.54101562 911.17382812 C23.33986792 911.16377115 29.13867525 911.14503125 34.9375 911.125 C38.87103436 924.73812264 42.66394514 938.38110629 46.30859375 952.07421875 C46.79874742 953.91010425 47.2890725 955.745944 47.77955627 957.58174133 C49.05575839 962.35999972 50.32984902 967.13881835 51.60339355 971.91778564 C53.13301206 977.65621443 54.66500789 983.39400887 56.1968174 989.1318531 C57.42836391 993.74508562 58.65944828 998.35843992 59.88925171 1002.97213745 C61.9860835 1010.83610089 64.08735069 1018.69868087 66.21923828 1026.55322266 C66.55246597 1027.78248978 66.88569366 1029.0117569 67.22901917 1030.27827454 C67.82955793 1032.48965816 68.43221383 1034.70046846 69.03746033 1036.91056824 C69.29330399 1037.85249527 69.54914764 1038.7944223 69.81274414 1039.76489258 C70.03241348 1040.56800369 70.25208282 1041.37111481 70.47840881 1042.19856262 C70.9375 1044.125 70.9375 1044.125 70.9375 1046.125 C66.89645541 1046.60950602 62.85456316 1047.08657252 58.8125 1047.5625 C57.12833984 1047.76456055 57.12833984 1047.76456055 55.41015625 1047.97070312 C54.28222656 1048.10283203 53.15429688 1048.23496094 51.9921875 1048.37109375 C50.97624512 1048.49154053 49.96030273 1048.6119873 48.91357422 1048.73608398 C38.56103367 1049.74870815 28.25991626 1050.28695089 17.859375 1050.328125 C16.06234886 1050.33864647 16.06234886 1050.33864647 14.22901917 1050.34938049 C10.38180735 1050.3667832 6.53474974 1050.37323346 2.6875 1050.375 C1.36970551 1050.37567474 0.05191101 1050.37634949 -1.30581665 1050.37704468 C-21.73220293 1050.36945074 -41.80279178 1049.83187922 -62.0625 1047.125 C-62.72199646 1047.03778687 -63.38149292 1046.95057373 -64.06097412 1046.86071777 C-157.16112025 1034.46665821 -245.6776444 998.69801829 -330.0625 933.125 C-330.94164062 932.41988281 -331.82078125 931.71476562 -332.7265625 930.98828125 C-338.41425945 926.39806948 -343.89301758 921.63926525 -349.26171875 916.6796875 C-350.71937021 915.35011421 -352.18122354 914.02405908 -353.68432617 912.74609375 C-360.15301163 907.23659078 -366.13055379 901.24303904 -372.13452148 895.23828125 C-373.98727468 893.38771033 -375.84788706 891.54529924 -377.70898438 889.703125 C-384.63061146 882.81355853 -390.99073397 875.78180451 -397.0625 868.125 C-398.65281573 866.27525992 -400.2846959 864.48257844 -401.9375 862.6875 C-404.47633744 859.92571805 -406.86107093 857.16407975 -409.0625 854.125 C-413.1658766 855.62518491 -416.83342836 857.63815587 -420.56640625 859.87890625 C-421.19304672 860.25131943 -421.81968719 860.6237326 -422.46531677 861.00743103 C-424.5207404 862.23047752 -426.57291689 863.45885821 -428.625 864.6875 C-430.07085135 865.54966734 -431.51681648 866.4116439 -432.96289062 867.2734375 C-443.16355136 873.35973136 -453.32138023 879.51499783 -463.46337891 885.69848633 C-472.43351149 891.16231975 -481.45990002 896.52790029 -490.5 901.875 C-502.78359118 909.14067519 -514.97635944 916.53375663 -527.0625 924.125 C-524.50489633 928.75730315 -521.29193814 932.68616406 -517.9375 936.75 C-516.75911211 938.18619589 -515.5807267 939.62239381 -514.40234375 941.05859375 C-513.8285498 941.75581543 -513.25475586 942.45303711 -512.66357422 943.17138672 C-511.30791772 944.82554398 -509.96677439 946.49157913 -508.62890625 948.16015625 C-504.12562468 953.77066668 -499.4051991 959.11498199 -494.48608398 964.36010742 C-491.87140198 967.14871506 -489.31899855 969.97312512 -486.82446289 972.87011719 C-483.32079246 976.88147906 -479.65012608 980.68256168 -475.87890625 984.44140625 C-475.21970688 985.10156235 -474.56050751 985.76171844 -473.8813324 986.44187927 C-472.49853165 987.82535506 -471.11448924 989.20759083 -469.72924805 990.58862305 C-467.63019657 992.68231669 -465.5365406 994.78129874 -463.44335938 996.88085938 C-462.08886214 998.23469571 -460.73405469 999.58822175 -459.37890625 1000.94140625 C-458.76406876 1001.55826797 -458.14923126 1002.1751297 -457.51576233 1002.8106842 C-453.73835226 1006.5681644 -449.8417348 1010.13773245 -445.80743408 1013.61817932 C-443.58403512 1015.53817364 -441.41809783 1017.5179561 -439.25 1019.5 C-434.98504692 1023.34428245 -430.6138915 1027.02026905 -426.1484375 1030.62890625 C-423.91310183 1032.43698156 -421.69061795 1034.25612763 -419.4765625 1036.08984375 C-385.26934213 1064.33549537 -347.34660811 1088.59098794 -308.0625 1109.125 C-306.40686035 1109.9907666 -306.40686035 1109.9907666 -304.71777344 1110.87402344 C-227.99269077 1150.70838184 -143.91684322 1174.44809034 -47.0625 1183.125 C-45.83797119 1183.21998779 -44.61344238 1183.31497559 -43.35180664 1183.4128418 C-29.70439702 1184.35725564 -16.0497602 1184.3244883 -2.375 1184.3125 C-1.1049411 1184.31189575 0.1651178 1184.3112915 1.47366333 1184.31066895 C20.05031528 1184.28665883 38.44519575 1184.02439322 56.9375 1182.125 C58.2069043 1182.00141113 59.47630859 1181.87782227 60.78417969 1181.75048828 C106.97084662 1177.20352332 152.71196446 1168.25179235 196.9375 1154.125 C198.12714355 1153.74762695 199.31678711 1153.37025391 200.54248047 1152.98144531 C248.04306014 1137.81653283 294.03288483 1117.59338376 336.9375 1092.125 C338.22793213 1091.35905518 338.22793213 1091.35905518 339.54443359 1090.57763672 C366.38715563 1074.52458671 392.10905653 1056.51144279 416.19628906 1036.56201172 C418.7190772 1034.47996868 421.2684177 1032.43093205 423.8125 1030.375 C428.2015461 1026.78216766 432.43230786 1023.04193674 436.625 1019.22265625 C438.60134372 1017.42992554 440.6020673 1015.67704773 442.625 1013.9375 C452.74874549 1005.0842644 462.41482894 995.74209325 471.9375 986.25 C473.12049683 985.0738916 473.12049683 985.0738916 474.32739258 983.87402344 C478.49940112 979.6909321 482.50626279 975.42484256 486.36035156 970.94726562 C488.61527637 968.34188501 490.96394372 965.83384796 493.3125 963.3125 C497.53024087 958.74202095 501.5470264 954.0556113 505.4453125 949.20703125 C507.31619084 946.89335882 509.20481879 944.60313421 511.1171875 942.32421875 C519.84119806 931.90356409 528.03705709 921.18186491 535.9375 910.125 C536.58509277 909.21943359 537.23268555 908.31386719 537.89990234 907.38085938 C547.46432991 893.94946872 556.47243952 880.2735246 564.9375 866.125 C565.49115234 865.20702637 566.04480469 864.28905273 566.61523438 863.34326172 C576.46366342 846.97319622 585.31392374 830.16066524 593.9375 813.125 C601.54877575 815.0678617 608.88002459 817.44097537 616.23046875 820.203125 C617.30753586 820.60292572 618.38460297 821.00272644 619.49430847 821.41464233 C623.03934515 822.73083616 626.58213543 824.05297188 630.125 825.375 C635.21332591 827.26712905 640.30330688 829.15474754 645.39453125 831.0390625 C646.05372055 831.28317745 646.71290985 831.5272924 647.39207458 831.77880478 C658.17606224 835.76951011 668.99156108 839.66700015 679.82421875 843.5234375 C681.30515026 844.05137548 682.78606163 844.57936995 684.26695251 845.10742188 C690.74976241 847.41800259 697.23413988 849.72380646 703.72485447 852.01209831 C706.40443119 852.95867457 709.08154032 853.91208483 711.75808144 854.86720657 C713.6018022 855.52248774 715.44871772 856.16875801 717.29570007 856.81478882 C718.39485245 857.20800323 719.49400482 857.60121765 720.62646484 858.00634766 C722.06401627 858.51423325 722.06401627 858.51423325 723.53060913 859.03237915 C725.91472447 860.11466093 727.25124234 861.15070178 728.9375 863.125 C703.92979666 917.06673691 672.57647649 968.29234961 635.9375 1015.125 C635.04530585 1016.27583467 634.15338637 1017.42688232 633.26171875 1018.578125 C628.28131781 1024.98667714 623.19115196 1031.27769021 617.91552734 1037.44580078 C615.08946902 1040.750409 612.33987607 1044.10264122 609.625 1047.5 C604.37906036 1053.94715659 598.66065112 1059.93421273 592.95141602 1065.9675293 C590.59698658 1068.48978568 588.28820382 1071.05137978 585.97265625 1073.609375 C579.62506655 1080.57632828 572.97619295 1087.23745107 566.30249023 1093.89038086 C564.23889939 1095.94857157 562.18076325 1098.0121098 560.12304688 1100.07617188 C558.7867791 1101.41177934 557.45020143 1102.74707684 556.11328125 1104.08203125 C555.51099197 1104.68634476 554.9087027 1105.29065826 554.28816223 1105.9132843 C550.56079219 1109.62055413 546.71231814 1113.13823662 542.73010254 1116.57051086 C540.13648153 1118.81961829 537.63705399 1121.16010076 535.125 1123.5 C530.47711458 1127.7937538 525.69333652 1131.8603184 520.76171875 1135.828125 C518.2753223 1137.85025655 515.83482485 1139.9164807 513.40576172 1142.00683594 C505.92327919 1148.43218563 498.15058119 1154.43255056 490.2734375 1160.36425781 C487.83398079 1162.2030289 485.40124009 1164.05046269 482.96875 1165.8984375 C472.81024412 1173.59451218 462.55085451 1181.06862821 451.9375 1188.125 C451.07785645 1188.69718262 450.21821289 1189.26936523 449.33251953 1189.85888672 C436.08076742 1198.65098128 422.6665768 1207.09939724 408.9375 1215.125 C408.12168457 1215.60501465 407.30586914 1216.0850293 406.46533203 1216.57958984 C391.57929554 1225.31875759 376.35129574 1233.36033084 360.9375 1241.125 C360.33701843 1241.4281311 359.73653687 1241.73126221 359.11785889 1242.0435791 C286.31091985 1278.74948978 207.30817481 1303.61200181 54.9375 1324.125 C53.69919434 1324.2178125 52.46088867 1324.310625 51.18505859 1324.40625 C34.96950745 1325.54446837 18.68467961 1325.37088908 2.4375 1325.375 C1.63741516 1325.37544186 0.83733032 1325.37588371 0.01300049 1325.37633896 C-25.79028661 1325.38380127 -51.38365944 1324.88043137 -77.0625 1322.125 C-77.87223267 1322.04014343 -78.68196533 1321.95528687 -79.51623535 1321.86785889 C-158.78367304 1313.53400022 -236.14869084 1293.66435855 -529.80859375 1124.1640625 C-531.8313269 1122.33413753 -533.87619435 1120.53618272 -535.9375 1118.75 C-546.89047239 1109.17010304 -557.26423012 1099.08174668 -567.53686523 1088.78100586 C-569.88477056 1086.427707 -572.23801968 1084.0798461 -574.59179688 1081.73242188 C-576.10969597 1080.21386242 -577.62728506 1078.69499304 -579.14453125 1077.17578125 C-579.83633987 1076.48599686 -580.5281485 1075.79621246 -581.24092102 1075.08552551 C-585.16359158 1071.14416178 -588.91227294 1067.10280341 -592.53877258 1062.88684082 C-594.77501022 1060.30114556 -597.10743636 1057.81399475 -599.4375 1055.3125 C-603.75162378 1050.64201463 -607.84428142 1045.83750344 -611.83203125 1040.8828125 C-614.1199773 1038.0539335 -616.46257798 1035.27752458 -618.8125 1032.5 C-624.61701388 1025.55080714 -630.06880037 1018.34370416 -635.53564453 1011.12792969 C-636.8845399 1009.35844814 -638.24685716 1007.60138378 -639.62109375 1005.8515625 C-658.28663728 982.00625401 -674.88221748 956.3066661 -690.0625 930.125 C-690.57200195 929.24875977 -691.08150391 928.37251953 -691.60644531 927.46972656 C-700.59590618 911.94950802 -708.98626126 896.1379057 -717.0625 880.125 C-717.57135742 879.11808105 -718.08021484 878.11116211 -718.60449219 877.07373047 C-755.5425932 803.45319757 -779.0544439 722.98718251 -795.5 611.25 C-795.58399048 610.51731903 -795.66798096 609.78463806 -795.7545166 609.02975464 C-795.99036754 606.9400049 -796.21447326 604.84937675 -796.43359375 602.7578125 C-796.55661865 601.59137207 -796.67964355 600.42493164 -796.80639648 599.22314453 C-797.16191181 593.53422142 -797.0625 587.82502081 -797.0625 582.125 C-752.1825 582.125 -707.3025 582.125 -661.0625 582.125 C-659.4125 594.995 -657.7625 607.865 -656.0625 621.125 C-646.11318749 684.31657943 -628.7725882 747.7048236 -600.0625 805.125 C-599.381875 804.70951904 -598.70125 804.29403809 -598 803.8659668 C-584.06957032 795.36900674 -570.10471777 786.93603999 -556.0625 778.625 C-544.85190972 771.98890215 -533.68740532 765.28317201 -522.56152344 758.50610352 C-513.5000261 752.98885237 -504.4119401 747.51692998 -495.3125 742.0625 C-494.64168396 741.660383 -493.97086792 741.25826599 -493.27972412 740.84396362 C-489.54126562 738.60327942 -485.80216952 736.36366263 -482.0625 734.125 C-482.44559326 733.10559326 -482.82868652 732.08618652 -483.22338867 731.03588867 C-508.36132024 664.10579579 -524.27678351 597.55134159 -524.3125 525.875 C-524.31317474 524.65568787 -524.31384949 523.43637573 -524.31454468 522.18011475 C-524.29686604 501.99970641 -523.57516677 482.14966818 -521.0625 462.125 C-520.98 461.45603699 -520.8975 460.78707397 -520.8125 460.09783936 C-516.85572636 428.18969383 -509.9843697 396.71253914 -500.0625 366.125 C-499.69431152 364.9807959 -499.32612305 363.8365918 -498.94677734 362.65771484 C-486.15087177 323.26278763 -469.01086464 285.28758297 -447.0625 250.125 C-446.4943457 249.20299805 -445.92619141 248.28099609 -445.34082031 247.33105469 C-438.20201145 235.75854544 -430.74146631 224.60082136 -422.40136719 213.86083984 C-420.35393536 211.20634672 -418.36925444 208.50715868 -416.375 205.8125 C-410.29327576 197.7144335 -403.8105061 189.96130274 -397.25 182.25 C-396.81324951 181.7338916 -396.37649902 181.2177832 -395.92651367 180.68603516 C-386.91428643 170.1614331 -377.30039454 160.19518227 -367.48828125 150.42041016 C-365.79568653 148.73324042 -364.10859403 147.04069804 -362.421875 145.34765625 C-356.80483306 139.72686842 -351.14347921 134.24867482 -345.0625 129.125 C-344.05261294 128.24828486 -343.04345523 127.37072861 -342.03515625 126.4921875 C-333.98162113 119.59533461 -325.66103004 113.11170212 -317.19140625 106.73486328 C-315.15972384 105.19851995 -313.14086008 103.64686244 -311.125 102.08984375 C-294.05558486 88.97708673 -275.72709194 77.80555067 -257.0625 67.125 C-255.72880371 66.36123047 -255.72880371 66.36123047 -254.36816406 65.58203125 C-197.25003652 33.11005227 -132.96430318 12.86373367 -68 3.9375 C-66.87867676 3.78240967 -65.75735352 3.62731934 -64.60205078 3.4675293 C-43.07507335 0.67191687 -21.69172493 -0.15891374 0 0 Z " fill="#FEFEFE" transform="translate(797.0625,277.875)"/>
<path d="M0 0 C0.820448 0.08721313 1.640896 0.17442627 2.48620605 0.26428223 C81.20195832 8.67558592 158.98245807 27.71157128 382.94335938 142.51269531 C385.1373949 144.09936013 387.34138063 145.67149518 389.546875 147.2421875 C403.86929944 157.46990808 417.55776324 168.3867076 431.18261719 179.51904297 C432.80707781 180.8427907 434.43825346 182.15828809 436.0703125 183.47265625 C441.71170713 188.0291673 447.12767045 192.77038886 452.46484375 197.6796875 C454.53325758 199.57281203 456.62405876 201.42251704 458.75 203.25 C470.28142544 213.30025378 481.19703201 224.03232505 491.99169922 234.86132812 C494.023262 236.89832421 496.06021836 238.92981951 498.09765625 240.9609375 C499.41959207 242.28353317 500.74121817 243.60643849 502.0625 244.9296875 C502.65740234 245.52256561 503.25230469 246.11544373 503.86523438 246.72628784 C507.54534784 250.42669223 511.03406998 254.25088381 514.44180298 258.20368958 C516.69245452 260.79827086 519.03391575 263.29917382 521.375 265.8125 C525.6687538 270.46038542 529.7353184 275.24416348 533.703125 280.17578125 C535.7255113 282.66249094 537.79204745 285.10326284 539.88256836 287.53271484 C546.36741316 295.0838946 552.4167504 302.93475202 558.40332031 310.88427734 C559.90419486 312.87305087 561.41522729 314.85359457 562.9296875 316.83203125 C585.34948268 346.24208657 605.21106591 377.59250327 623 410 C623.50756836 410.91958496 624.01513672 411.83916992 624.53808594 412.78662109 C643.89098404 447.92800436 660.39952629 484.26567687 674 522 C674.25158875 522.6954895 674.50317749 523.390979 674.76239014 524.10754395 C688.30809401 561.61369451 699.21215861 599.882221 707 639 C707.15319702 639.76940918 707.30639404 640.53881836 707.4642334 641.33154297 C712.33439621 665.95017156 716.08036007 690.66558756 718.74285889 715.61901855 C718.9862287 717.8724855 719.24168462 720.12423773 719.50048828 722.37597656 C725.09520036 771.97533308 724.95172326 825.19518416 719.25323486 874.77526855 C718.98512033 877.13072162 718.73149924 879.48744616 718.47998047 881.84472656 C714.01436441 923.31574625 706.91379882 964.97622425 695 1005 C690.91545602 1004.41083893 687.22823241 1003.50684436 683.34838867 1002.10839844 C682.24948303 1001.71503296 681.15057739 1001.32166748 680.01837158 1000.91638184 C678.83023865 1000.48506958 677.64210571 1000.05375732 676.41796875 999.609375 C675.14660763 999.15182248 673.8750991 998.69467936 672.60345459 998.23791504 C669.17487149 997.00474002 665.74875051 995.76485757 662.32316208 994.52339172 C659.46878749 993.48973115 656.61310877 992.45969918 653.75747776 991.42951584 C633.45900567 984.10525923 613.18918362 976.7025745 592.9375 969.25 C591.71694916 968.80120483 590.49639832 968.35240967 589.23886108 967.89001465 C585.79247399 966.62175869 582.34717852 965.35059053 578.90234375 964.078125 C577.89476013 963.70723755 576.88717651 963.3363501 575.84906006 962.95422363 C570.83532958 961.09738228 565.89087248 959.16054133 561 957 C561.60862259 951.60767897 562.481567 946.3629012 563.671875 941.06640625 C564.00821468 939.53196119 564.34387941 937.99736806 564.67895508 936.46264648 C564.8539151 935.66446503 565.02887512 934.86628357 565.20913696 934.04391479 C580.36736012 864.49980357 583.85595407 793.15114899 576 722.4375 C575.91641235 721.68405304 575.83282471 720.93060608 575.7467041 720.15432739 C574.79492707 711.69572903 573.57585318 703.36652056 572 695 C561.49503654 697.80864198 550.99012643 700.61748341 540.48527622 703.42654896 C534.65757576 704.98490694 528.82983857 706.54312742 523.00206947 708.10122871 C519.21992556 709.11246892 515.43783571 710.12391127 511.65574265 711.13534164 C508.81463717 711.89500427 505.9734386 712.65431796 503.13223267 713.41360474 C493.44313547 716.00372216 483.75658182 718.60293342 474.07373047 721.21630859 C471.22321242 721.98470255 468.3726503 722.75293284 465.52207756 723.52112389 C462.82636119 724.24849267 460.1313864 724.9785652 457.43641663 725.70869446 C455.81173281 726.14667043 454.18701455 726.58451867 452.56225586 727.0222168 C451.82051809 727.22410551 451.07878033 727.42599422 450.31456566 727.63400078 C445.22751988 729 445.22751988 729 443 729 C443.08564209 729.73412109 443.17128418 730.46824219 443.25952148 731.22460938 C443.65650784 734.64925332 444.04701271 738.07460916 444.4375 741.5 C444.63956055 743.23056641 444.63956055 743.23056641 444.84570312 744.99609375 C446.78403079 762.11010874 447.20481825 779.04271547 447.1875 796.25 C447.18689575 797.3587146 447.1862915 798.4674292 447.18566895 799.60974121 C447.1607184 816.48665735 446.8596655 833.2092925 445 850 C444.87641113 851.14533203 444.75282227 852.29066406 444.62548828 853.47070312 C434.56917282 943.52653176 401.64092194 1030.09511201 325 1134 C324.50290527 1134.59619141 324.00581055 1135.19238281 323.49365234 1135.80664062 C312.33319409 1149.14770901 300.39867392 1161.6813244 288.125 1174 C287.24529541 1174.88437744 286.36559082 1175.76875488 285.45922852 1176.67993164 C280.46561403 1181.66124309 275.35777576 1186.41527877 270 1191 C268.84325976 1192.02141129 267.688271 1193.04481 266.53515625 1194.0703125 C226.55395662 1229.3549082 180.12241011 1257.4608869 131.625 1279.375 C130.99577637 1279.66721436 130.36655273 1279.95942871 129.71826172 1280.26049805 C126.31796326 1281.74997558 124.51497415 1282.08713467 121 1281 C120.69425552 1279.85805679 120.38851105 1278.71611359 120.07350159 1277.53956604 C117.1485876 1266.6155352 114.22285179 1255.69172473 111.29637241 1244.76811314 C109.49975407 1238.06179306 107.70374539 1231.35531015 105.90824318 1224.64869118 C104.74819771 1220.31650835 103.58727926 1215.98455961 102.42640305 1211.65259933 C101.56906919 1208.45134956 100.71325268 1205.24969681 99.85757446 1202.04800415 C97.32128736 1192.56916412 94.76382077 1183.09822015 92.10888672 1173.65185547 C91.67445809 1172.09727147 91.2401233 1170.54266124 90.80589294 1168.98802185 C90.02344103 1166.18801229 89.22708979 1163.39251998 88.42176819 1160.59901428 C88.08269943 1159.38805588 87.74363068 1158.17709747 87.39428711 1156.92944336 C87.09832138 1155.89492538 86.80235565 1154.86040741 86.49742126 1153.79454041 C85.96699812 1150.81459359 86.10778532 1148.878531 87 1146 C88.55273438 1144.75244141 88.55273438 1144.75244141 90.59375 1143.8515625 C91.74907227 1143.31547363 91.74907227 1143.31547363 92.92773438 1142.76855469 C93.77658203 1142.39118164 94.62542969 1142.01380859 95.5 1141.625 C143.28568496 1119.01989994 188.34932009 1082.61467689 221 1041 C222.04235416 1039.71044048 223.08537641 1038.42142082 224.12890625 1037.1328125 C241.89354902 1014.98826208 256.80580966 990.50907262 269.07324219 964.91845703 C270.00146292 962.99697165 270.95567071 961.09018167 271.9140625 959.18359375 C293.91095683 914.7824552 306.98807381 861.90725971 307.203125 812.31640625 C307.21013931 811.23100555 307.21715363 810.14560486 307.22438049 809.02731323 C307.2418054 805.53899955 307.2482339 802.05085562 307.25 798.5625 C307.25067474 797.37093292 307.25134949 796.17936584 307.25204468 794.95169067 C307.23626842 777.43665424 306.7955135 760.32400174 304 743 C303.82839355 741.8759375 303.65678711 740.751875 303.47998047 739.59375 C298.03102472 704.37762136 288.09222725 669.85094059 273.14208984 637.47802734 C272.0913458 635.19819577 271.06722234 632.90855562 270.05078125 630.61328125 C254.67449585 596.35694714 232.50783428 565.17320556 207.28125 537.50390625 C205.70516889 535.77399531 204.14350336 534.03087962 202.59375 532.27734375 C191.44500341 519.80216496 179.18700452 508.29693923 166 498 C164.65320582 496.92372746 163.30689192 495.84685379 161.9609375 494.76953125 C147.10416098 482.95757761 131.48103361 472.41230728 115 463 C114.20674316 462.54657227 113.41348633 462.09314453 112.59619141 461.62597656 C95.10370698 451.70130376 77.03952994 442.64272886 58.09765625 435.8046875 C56 435 56 435 55 434 C54.52842345 427.28984019 55.92213233 420.8541114 57.11132812 414.27172852 C57.33566025 413.00274216 57.55999237 411.7337558 57.79112244 410.42631531 C58.40349852 406.96305844 59.02324822 403.5011581 59.64436913 400.03946042 C60.29331099 396.4154145 60.93540957 392.79015654 61.57824707 389.1650238 C62.79527989 382.3078618 64.0184287 375.45180568 65.24379969 368.59612936 C66.63909908 360.78801264 68.02754389 352.97868203 69.4154253 345.16924393 C72.26934615 329.11147003 75.13183528 313.05523599 78 297 C81.75247673 295.74917442 83.01877293 296.43414588 86.72265625 297.703125 C88.4696582 298.29915527 88.4696582 298.29915527 90.25195312 298.90722656 C91.52253825 299.3536729 92.79271039 299.80129606 94.0625 300.25 C94.70936768 300.47619019 95.35623535 300.70238037 96.02270508 300.9354248 C155.4070751 321.74804496 210.85316032 353.5207345 259 394 C259.52094238 394.43602539 260.04188477 394.87205078 260.57861328 395.32128906 C273.9834647 406.56558005 286.60752141 418.5277927 299 430.875 C299.88437744 431.75470459 300.76875488 432.63440918 301.67993164 433.54077148 C306.66124309 438.53438597 311.41527877 443.64222424 316 449 C317.02141129 450.15674024 318.04481 451.311729 319.0703125 452.46484375 C355.70227639 493.97275485 385.77866883 542.91446824 407 594 C416.11959572 592.38683777 425.0197908 589.95519771 433.95703125 587.5625 C435.6252336 587.11823985 437.293504 586.67423513 438.96183777 586.23046875 C443.35909083 585.06000464 447.75532043 583.88573971 452.15136719 582.71075439 C455.62782921 581.78223604 459.10501145 580.85643409 462.58224678 579.93081665 C466.87411819 578.78824845 471.16560598 577.64424257 475.45703125 576.5 C476.30406742 576.27421265 477.15110359 576.04842529 478.02380753 575.8157959 C487.58530026 573.26581799 497.14040081 570.69436056 506.68505859 568.08203125 C508.40710218 567.61191482 510.12916303 567.1418616 511.85124207 566.671875 C515.09835854 565.78558425 518.34356878 564.89271852 521.58784485 563.99609375 C523.0463698 563.5974082 524.5049589 563.19895721 525.96362305 562.80078125 C527.23062546 562.45184814 528.49762787 562.10291504 529.80302429 561.7434082 C533 561 533 561 537 561 C531.04805555 545.81551179 524.90691751 530.77631917 518 516 C517.55430664 515.04158203 517.10861328 514.08316406 516.64941406 513.09570312 C486.41376552 448.30799225 444.9754777 386.06833701 393.77734375 335.8125 C392.0043891 334.00447591 390.37915955 332.12530129 388.75 330.1875 C385.28898993 326.15625486 381.42149128 322.62608099 377.48242188 319.07592773 C374.48776407 316.37481779 371.57635002 313.62652191 368.75 310.75 C365.00005234 306.95413461 361.05350686 303.46681508 357 300 C355.95787415 299.09427806 354.91624715 298.18798197 353.875 297.28125 C346.39132432 290.78602451 338.75101139 284.54931727 330.91308594 278.48779297 C328.87255606 276.90088778 326.84581561 275.29744018 324.8203125 273.69140625 C292.86226443 248.4383656 258.08550767 226.82847274 222 208 C220.4519165 207.19199951 220.4519165 207.19199951 218.87255859 206.36767578 C135.04694823 162.91353186 42.03672641 139.30089002 -239 153 C-239.66499512 153.16286499 -240.32999023 153.32572998 -241.01513672 153.49353027 C-283.08348346 163.79992407 -324.0651503 178.03285448 -363.18798828 196.66601562 C-366.04264551 198.02023052 -368.9085549 199.34789295 -371.77734375 200.671875 C-384.69903899 206.68145944 -397.1008127 213.3838812 -409.43017578 220.5234375 C-412.40892838 222.23496094 -415.41392838 223.8943071 -418.42456055 225.54882812 C-427.57297126 230.59654303 -436.31588905 236.1956777 -445 242 C-446.28100586 242.85537354 -446.28100586 242.85537354 -447.58789062 243.72802734 C-465.76370171 255.90529659 -483.4108347 268.60923197 -500.26318359 282.56738281 C-502.76234405 284.62882132 -505.29045371 286.65416707 -507.8125 288.6875 C-512.41773356 292.45604698 -516.82873534 296.40788304 -521.19921875 300.4453125 C-523.39562092 302.44872536 -525.61254448 304.41297149 -527.85546875 306.36328125 C-541.58628232 318.34242725 -555.38638906 330.96232343 -567.171875 344.890625 C-569.16162888 347.18649486 -571.22260554 349.40325498 -573.29663086 351.62280273 C-578.3180044 356.99835204 -583.12841959 362.46615517 -587.734375 368.20703125 C-589.75887274 370.7027483 -591.83266253 373.14705763 -593.9309082 375.58081055 C-600.68332372 383.43337223 -606.88175413 391.64807849 -613 400 C-613.52883789 400.71849121 -614.05767578 401.43698242 -614.60253906 402.17724609 C-638.46471631 434.64157322 -658.86290742 469.04353707 -677 505 C-677.48855469 505.96631348 -677.97710938 506.93262695 -678.48046875 507.92822266 C-697.15956653 545.14907191 -711.12688034 584.85144776 -722 625 C-722.31275879 626.14533203 -722.62551758 627.29066406 -722.94775391 628.47070312 C-726.80833726 642.76000898 -729.93500504 657.15052176 -732.6875 671.6875 C-732.82625549 672.41890198 -732.96501099 673.15030396 -733.10797119 673.90386963 C-735.68064802 687.56287151 -737.80314551 701.26965943 -740 715 C-784.88 715 -829.76 715 -876 715 C-876 708.83187994 -875.80090123 703.23030149 -874.93359375 697.19921875 C-874.81964767 696.37778885 -874.7057016 695.55635895 -874.58830261 694.71003723 C-874.21320438 692.03456845 -873.82675281 689.36094422 -873.4375 686.6875 C-873.30406189 685.76227539 -873.17062378 684.83705078 -873.03314209 683.88378906 C-870.31260474 665.12379425 -866.97046426 646.53431164 -863 628 C-862.85173767 627.30489319 -862.70347534 626.60978638 -862.55072021 625.89361572 C-846.1539068 549.33268014 -817.96164978 473.97391522 -779 406 C-778.37158203 404.90059082 -777.74316406 403.80118164 -777.09570312 402.66845703 C-764.2038263 380.16941417 -750.70122805 358.04907143 -735.47412109 337.0390625 C-733.92638127 334.89816766 -732.39391878 332.74690011 -730.86328125 330.59375 C-717.56322961 311.94426084 -703.28327969 294.1206179 -688.43261719 276.68701172 C-687.01400845 275.01649597 -685.60406198 273.33898958 -684.1953125 271.66015625 C-678.87999781 265.35464256 -673.41699464 259.21382849 -667.76171875 253.2109375 C-667.07368164 252.48057281 -666.38564453 251.75020813 -665.67675781 250.99771118 C-658.2037396 243.10411037 -650.54778509 235.39650034 -642.8515625 227.72119141 C-640.47016511 225.34523325 -638.09426757 222.96386669 -635.71875 220.58203125 C-634.17740441 219.04134538 -632.63574924 217.50096916 -631.09375 215.9609375 C-630.3977771 215.26294037 -629.7018042 214.56494324 -628.98474121 213.84579468 C-625.02069946 209.90044448 -620.95572712 206.12939636 -616.71760559 202.47949219 C-614.50150621 200.57061291 -612.34614829 198.59840527 -610.1875 196.625 C-605.87225424 192.73075382 -601.42908245 189.03345276 -596.91015625 185.37890625 C-594.33116035 183.27070691 -591.7909932 181.12725313 -589.26074219 178.96142578 C-582.96728556 173.57911138 -576.52600267 168.42957229 -569.91259766 163.44433594 C-567.7840998 161.8369587 -565.66381155 160.21902508 -563.54296875 158.6015625 C-544.97102265 144.494171 -525.9059441 131.15927726 -506 119 C-504.58944336 118.13640869 -504.58944336 118.13640869 -503.15039062 117.25537109 C-453.86978319 87.17053563 -402.54801194 61.97025829 -348.08685303 42.73706055 C-346.04853091 42.01714075 -344.01181039 41.29281722 -341.97509766 40.56835938 C-292.75552553 23.13822004 -241.65602427 11.36600039 -190 4 C-189.31240601 3.90158813 -188.62481201 3.80317627 -187.91638184 3.70178223 C-178.3517874 2.34323666 -168.77333409 1.19487951 -159.16217041 0.22003174 C-157.72045887 0.07331699 -156.27900742 -0.07597644 -154.83782959 -0.22784424 C-104.00788918 -5.5732056 -50.81046097 -5.50073574 0 0 Z " fill="#FEFEFE" transform="translate(878,6)"/>
</svg>
